<?xml version="1.0" encoding="utf-8"?>
<!-- Generator: Adobe Illustrator 17.0.0, SVG Export Plug-In . SVG Version: 6.00 Build 0)  -->
<!DOCTYPE svg PUBLIC "-//W3C//DTD SVG 1.1//EN" "http://www.w3.org/Graphics/SVG/1.1/DTD/svg11.dtd">
<svg version="1.1" id="Layer_1" xmlns="http://www.w3.org/2000/svg" xmlns:xlink="http://www.w3.org/1999/xlink" x="0px" y="0px"
	 width="300px" height="600px" viewBox="0 0 300 600" enable-background="new 0 0 300 600" xml:space="preserve">
<g>
	<rect x="53.762" y="149.32" fill="#05173C" width="194.997" height="3.64"/>
	<rect x="53.76" y="225.022" fill="#05173C" width="195" height="3.641"/>
</g>
<g>
	<g>
		<path fill="#FFFFFF" d="M71.992,162.622h5.678v17.576h11.186v4.828H71.992V162.622z"/>
		<path fill="#FFFFFF" d="M102.761,185.366c-7.411,0-12.715-4.352-12.715-11.457c0-7.105,5.304-11.457,12.715-11.457
			s12.715,4.352,12.715,11.457C115.476,181.014,110.172,185.366,102.761,185.366z M102.761,180.47c4.623,0,6.901-2.753,6.901-6.561
			s-2.278-6.562-6.901-6.562c-4.624,0-6.901,2.754-6.901,6.562S98.137,180.47,102.761,180.47z"/>
		<path fill="#FFFFFF" d="M120.273,162.622h4.929l13.123,13.633h0.068v-13.633h5.677v22.404h-4.691l-13.36-13.973h-0.068v13.973
			h-5.677V162.622z"/>
		<path fill="#FFFFFF" d="M150.056,162.622h9.417c2.312,0,3.909,0.17,5.371,0.51c4.861,1.156,8.737,4.42,8.737,10.335
			c0,6.052-4.08,9.179-7.854,10.505c-2.617,0.917-5.575,1.054-8.193,1.054h-7.479V162.622z M157.875,180.198
			c2.04,0,3.638-0.136,4.964-0.51c2.754-0.782,4.93-2.89,4.93-6.222c0-3.297-2.074-4.997-4.386-5.643
			c-1.292-0.374-2.618-0.374-4.794-0.374h-2.855v12.749H157.875z"/>
		<path fill="#FFFFFF" d="M189.903,185.366c-7.411,0-12.715-4.352-12.715-11.457c0-7.105,5.304-11.457,12.715-11.457
			s12.715,4.352,12.715,11.457C202.618,181.014,197.314,185.366,189.903,185.366z M189.903,180.47c4.623,0,6.901-2.753,6.901-6.561
			s-2.278-6.562-6.901-6.562c-4.624,0-6.901,2.754-6.901,6.562S185.279,180.47,189.903,180.47z"/>
		<path fill="#FFFFFF" d="M207.414,162.622h4.929l13.123,13.633h0.068v-13.633h5.677v22.404h-4.691l-13.36-13.973h-0.068v13.973
			h-5.677V162.622z"/>
		<path fill="#FFFFFF" d="M87.174,203.706h10.845v4.385H87.174V203.706z"/>
		<path fill="#FFFFFF" d="M111.449,192.623h8.771c1.904,0,3.229,0.17,4.42,0.51c3.501,0.986,5.711,3.332,5.711,7.037
			c0,3.773-2.277,6.425-6.425,7.411c-1.122,0.272-2.414,0.374-4.182,0.374h-2.618v7.071h-5.678V192.623z M119.541,203.264
			c1.428,0,2.176-0.136,2.754-0.306c1.598-0.476,2.243-1.462,2.243-2.72s-0.646-2.142-2.142-2.583
			c-0.578-0.17-1.189-0.204-2.312-0.204h-2.958v5.813H119.541z"/>
		<path fill="#FFFFFF" d="M132.053,215.026l10.199-22.506h5.065l11.049,22.506h-6.357l-2.176-4.726h-9.688l-1.938,4.726H132.053z
			 M144.768,199.286h-0.067l-2.584,6.255h5.507L144.768,199.286z"/>
		<path fill="#FFFFFF" d="M174.349,206.052c1.869,1.054,2.516,4.793,5.27,4.793c0.611,0,1.189-0.136,1.733-0.34l1.02,4.283
			c-1.155,0.442-2.55,0.578-3.604,0.578c-7.241,0-7.955-8.295-10.369-8.295h-1.224v7.955h-5.677v-22.404h9.246
			c6.12,0,9.485,2.346,9.485,7.071c0,3.332-2.107,5.61-5.881,6.29V206.052z M170.167,202.516c3.025,0,4.249-0.952,4.249-2.618
			c0-1.802-1.224-2.448-3.842-2.448h-3.399v5.065H170.167z"/>
		<path fill="#FFFFFF" d="M185.773,192.623h5.677v22.404h-5.677V192.623z"/>
		<path fill="#FFFFFF" d="M198.115,208.669c2.107,1.292,5.133,1.938,7.683,1.938c3.23,0,4.896-0.781,4.896-2.243
			c0-3.332-13.973-0.034-13.973-8.703c0-4.76,4.182-7.208,9.485-7.208c3.399,0,7.445,0.85,9.927,2.312l-1.903,4.181
			c-2.04-1.054-5.372-1.734-7.819-1.734c-2.788,0-3.876,0.782-3.876,1.972c0,4.011,13.973,0.204,13.973,9.009
			c0,4.623-4.419,7.173-10.675,7.173c-3.604,0-7.343-0.815-9.927-2.516L198.115,208.669z"/>
	</g>
</g>
</svg>
