<?xml version="1.0" encoding="utf-8"?>
<!-- Generator: Adobe Illustrator 17.0.0, SVG Export Plug-In . SVG Version: 6.00 Build 0)  -->
<!DOCTYPE svg PUBLIC "-//W3C//DTD SVG 1.1//EN" "http://www.w3.org/Graphics/SVG/1.1/DTD/svg11.dtd">
<svg version="1.1" id="Layer_1" xmlns="http://www.w3.org/2000/svg" xmlns:xlink="http://www.w3.org/1999/xlink" x="0px" y="0px"
	 width="300px" height="600px" viewBox="0 0 300 600" enable-background="new 0 0 300 600" xml:space="preserve">
<g>
	<path fill="#FFFFFF" d="M31.447,269.005c1.488,0.912,3.624,1.368,5.424,1.368c2.28,0,3.457-0.552,3.457-1.584
		c0-2.353-9.865-0.024-9.865-6.145c0-3.36,2.953-5.089,6.697-5.089c2.4,0,5.256,0.601,7.009,1.632l-1.344,2.953
		c-1.44-0.744-3.792-1.225-5.521-1.225c-1.968,0-2.736,0.552-2.736,1.393c0,2.832,9.865,0.144,9.865,6.36
		c0,3.264-3.12,5.064-7.537,5.064c-2.544,0-5.184-0.576-7.008-1.776L31.447,269.005z"/>
	<path fill="#FFFFFF" d="M45.847,273.494l7.2-15.89h3.577l7.801,15.89h-4.489l-1.536-3.336h-6.84l-1.368,3.336H45.847z
		 M54.823,262.38h-0.048l-1.824,4.417h3.888L54.823,262.38z"/>
	<path fill="#FFFFFF" d="M66.631,257.676h4.008v12.409h7.896v3.408H66.631V257.676z"/>
	<path fill="#FFFFFF" d="M80.694,257.676h12.289v3.408h-8.281v2.736h7.537v3.408h-7.537v2.856h8.425v3.408H80.694V257.676z"/>
	<path fill="#FFFFFF" d="M102.342,257.676h12.289v3.408h-8.281v2.736h7.537v3.408h-7.537v2.856h8.425v3.408h-12.433V257.676z"/>
	<path fill="#FFFFFF" d="M118.278,257.676h3.48l9.265,9.625h0.048v-9.625h4.008v15.817h-3.312l-9.433-9.865h-0.048v9.865h-4.008
		V257.676z"/>
	<path fill="#FFFFFF" d="M139.302,257.676h6.648c1.632,0,2.76,0.12,3.792,0.36c3.433,0.815,6.169,3.12,6.169,7.296
		c0,4.272-2.88,6.481-5.545,7.417c-1.848,0.648-3.936,0.744-5.784,0.744h-5.28V257.676z M144.822,270.085
		c1.44,0,2.568-0.096,3.504-0.36c1.944-0.552,3.48-2.04,3.48-4.393c0-2.328-1.464-3.528-3.097-3.984
		c-0.911-0.264-1.848-0.264-3.384-0.264h-2.017v9.001H144.822z"/>
	<path fill="#FFFFFF" d="M159.772,269.005c1.488,0.912,3.625,1.368,5.425,1.368c2.28,0,3.456-0.552,3.456-1.584
		c0-2.353-9.864-0.024-9.864-6.145c0-3.36,2.952-5.089,6.696-5.089c2.4,0,5.257,0.601,7.009,1.632l-1.345,2.953
		c-1.439-0.744-3.792-1.225-5.52-1.225c-1.969,0-2.736,0.552-2.736,1.393c0,2.832,9.864,0.144,9.864,6.36
		c0,3.264-3.12,5.064-7.536,5.064c-2.545,0-5.185-0.576-7.009-1.776L159.772,269.005z"/>
	<path fill="#FFFFFF" d="M179.164,273.494l7.201-15.89h3.576l7.801,15.89h-4.488l-1.536-3.336h-6.841l-1.368,3.336H179.164z
		 M188.142,262.38h-0.049l-1.824,4.417h3.889L188.142,262.38z"/>
	<path fill="#FFFFFF" d="M199.949,257.676h6.192c1.344,0,2.28,0.12,3.12,0.36c2.473,0.695,4.032,2.352,4.032,4.968
		c0,2.665-1.607,4.537-4.536,5.232c-0.792,0.192-1.704,0.265-2.952,0.265h-1.849v4.992h-4.008V257.676z M205.661,265.189
		c1.009,0,1.536-0.096,1.944-0.216c1.128-0.336,1.584-1.032,1.584-1.92c0-0.889-0.456-1.513-1.512-1.824
		c-0.408-0.12-0.84-0.145-1.632-0.145h-2.089v4.104H205.661z"/>
	<path fill="#FFFFFF" d="M225.581,267.157c1.32,0.744,1.776,3.385,3.721,3.385c0.432,0,0.84-0.096,1.225-0.24l0.72,3.024
		c-0.816,0.312-1.801,0.408-2.544,0.408c-5.113,0-5.617-5.856-7.321-5.856h-0.864v5.616h-4.008v-15.817h6.528
		c4.32,0,6.696,1.656,6.696,4.992c0,2.353-1.487,3.961-4.152,4.44V267.157z M222.629,264.661c2.137,0,3.001-0.672,3.001-1.848
		c0-1.272-0.864-1.729-2.713-1.729h-2.4v3.576H222.629z"/>
	<path fill="#FFFFFF" d="M233.645,257.676h4.008v15.817h-4.008V257.676z"/>
	<path fill="#FFFFFF" d="M241.876,257.676h4.008v12.409h7.897v3.408h-11.905V257.676z"/>
	<path fill="#FFFFFF" d="M266.692,257.676h3.961l-5.688,8.809h4.128v-4.032h3.624v4.032h4.129v3.097h-4.129v4.152h-3.624v-4.152
		h-7.248l-1.488-2.089L266.692,257.676z"/>
</g>
<g>
	<path fill="#FFFFFF" d="M41.989,208.958c1.174,0.886,2.812,1.417,4.805,1.417c2.479,0,4.539-0.907,4.539-2.922
		c0-3.122-5.956-1.749-8.48-3.831c-0.708-0.575-1.151-1.372-1.151-2.612c0-2.635,2.281-4.096,5.602-4.096
		c2.215,0,4.251,0.664,5.336,1.395l-0.687,1.263c-0.951-0.576-2.656-1.196-4.538-1.196c-2.856,0-3.985,1.218-3.985,2.546
		c0,4.273,9.631,0.775,9.631,6.51c0,2.989-2.923,4.406-6.266,4.406c-2.479,0-4.428-0.687-5.624-1.616L41.989,208.958z"/>
	<path fill="#FFFFFF" d="M62.159,196.958h1.174l7.461,14.657h-1.837l-2.325-4.649h-7.639l-2.258,4.649H54.92L62.159,196.958z
		 M65.901,205.526l-3.144-6.243h-0.045l-3.033,6.243H65.901z"/>
	<path fill="#FFFFFF" d="M71.459,197.024l6.243,12.332h0.045l5.934-12.332h1.815l-7.24,14.657h-1.107l-7.505-14.657H71.459z"/>
	<path fill="#FFFFFF" d="M87.91,197.024h10.052v1.462h-8.414v4.959h7.595v1.439h-7.595v5.27h8.547v1.461H87.91V197.024z"/>
	<path fill="#FFFFFF" d="M108.038,205.759c0.672-13.969,16.129-10.993,20.497-14.161c0.721-0.528,1.152-1.2,1.152-2.16
		c0-1.873-2.208-2.977-6.624-2.977c-4.849,0-9.169,1.296-12.77,3.168l-2.928-5.809c4.368-2.448,9.601-4.081,15.745-4.081
		c7.44,0,14.113,2.736,14.113,9.793c0,13.682-21.314,6.769-21.314,15.554v0.336h21.746v6.192H107.75L108.038,205.759z"/>
	<path fill="#FFFFFF" d="M141.206,195.966c0-9.697,7.776-16.226,16.897-16.226c9.12,0,16.897,6.529,16.897,16.226
		c0,9.937-7.921,16.13-16.897,16.13C149.126,212.096,141.206,205.902,141.206,195.966z M167.464,195.966
		c0-5.521-4.032-9.505-9.36-9.505c-5.329,0-9.361,3.984-9.361,9.505c0,5.473,4.032,9.409,9.361,9.409
		C163.479,205.375,167.464,201.438,167.464,195.966z"/>
	<path fill="#FFFFFF" d="M177.925,185.399c0-4.993,4.032-8.353,8.688-8.353s8.688,3.36,8.688,8.353c0,5.088-4.128,8.305-8.688,8.305
		C182.005,193.704,177.925,190.488,177.925,185.399z M206.679,177.623h5.521l-26.354,31.779h-5.521L206.679,177.623z
		 M190.693,185.399c0-2.448-1.775-4.176-4.08-4.176c-2.352,0-4.128,1.728-4.128,4.176c0,2.352,1.776,4.08,4.128,4.08
		C188.966,189.479,190.693,187.751,190.693,185.399z M197.702,201.337c0-4.992,4.032-8.353,8.689-8.353
		c4.656,0,8.688,3.36,8.688,8.353c0,5.088-4.129,8.305-8.688,8.305C201.783,209.642,197.702,206.425,197.702,201.337z
		 M210.472,201.337c0-2.448-1.776-4.177-4.08-4.177c-2.353,0-4.129,1.729-4.129,4.177c0,2.352,1.776,4.08,4.129,4.08
		C208.743,205.417,210.472,203.688,210.472,201.337z"/>
	<path fill="#FFFFFF" d="M223.753,204.397c0-4.428,3.255-7.483,8.081-7.483c4.827,0,8.081,3.056,8.081,7.483
		c0,4.561-3.32,7.439-8.081,7.439C227.052,211.837,223.753,208.958,223.753,204.397z M238.188,204.397
		c0-3.477-2.391-6.022-6.354-6.022c-3.985,0-6.354,2.546-6.354,6.022c0,3.476,2.369,5.978,6.354,5.978
		C235.798,210.375,238.188,207.873,238.188,204.397z"/>
	<path fill="#FFFFFF" d="M243.592,197.024h1.306l11.558,11.734h0.044v-11.734h1.639v14.591h-1.129l-11.734-11.911h-0.045v11.911
		h-1.638V197.024z"/>
</g>
<g>
	<g>
		<g id="XMLID_95_">
			<path id="XMLID_99_" fill="#06183D" d="M178.944,231.56c0.823,0,1.254-0.078,1.587-0.175c0.92-0.274,1.293-0.842,1.293-1.567
				s-0.373-1.234-1.234-1.489c-0.333-0.098-0.686-0.118-1.332-0.118h-1.704v3.348H178.944z M174.283,225.431h5.053
				c1.097,0,1.861,0.098,2.545,0.294c2.017,0.568,3.291,1.919,3.291,4.054c0,2.174-1.312,3.701-3.702,4.269
				c-0.646,0.157-1.39,0.215-2.408,0.215h-1.508v4.073h-3.27V225.431z"/>
			<path id="XMLID_96_" fill="#06183D" d="M196.317,231.129c1.742,0,2.447-0.548,2.447-1.507c0-1.038-0.705-1.41-2.212-1.41h-1.959
				v2.918H196.317z M198.726,233.166c1.077,0.607,1.449,2.761,3.036,2.761c0.352,0,0.685-0.078,0.998-0.196l0.588,2.468
				c-0.666,0.255-1.469,0.333-2.075,0.333c-4.172,0-4.582-4.778-5.973-4.778h-0.705v4.582h-3.27v-12.905h5.326
				c3.526,0,5.464,1.351,5.464,4.073c0,1.919-1.214,3.231-3.388,3.623V233.166z"/>
		</g>
		<polygon id="XMLID_94_" fill="#06183D" points="208.833,225.431 208.833,238.336 218.977,238.336 218.977,235.555 
			212.104,235.555 212.104,233.224 218.253,233.224 218.253,230.444 212.104,230.444 212.104,228.211 218.86,228.211 
			218.86,225.431 		"/>
		<polygon id="XMLID_93_" fill="#06183D" points="238.309,225.431 233.335,231.345 233.295,231.345 228.321,225.431 
			225.364,225.431 225.364,238.336 228.634,238.336 228.634,230.561 228.674,230.561 233.041,235.771 233.55,235.771 
			237.916,230.561 237.956,230.561 237.956,238.336 241.226,238.336 241.226,225.431 		"/>
		<rect id="XMLID_92_" x="248.201" y="225.431" fill="#06183D" width="3.27" height="12.905"/>
		<polygon id="XMLID_91_" fill="#06183D" points="258.445,225.431 258.445,238.336 268.589,238.336 268.589,235.555 
			261.716,235.555 261.716,233.224 267.865,233.224 267.865,230.444 261.716,230.444 261.716,228.211 268.472,228.211 
			268.472,225.431 		"/>
		<path id="XMLID_88_" fill="#06183D" d="M279.97,231.129c1.742,0,2.447-0.548,2.447-1.507c0-1.038-0.705-1.41-2.212-1.41h-1.959
			v2.918H279.97z M282.378,233.166c1.077,0.607,1.449,2.761,3.036,2.761c0.352,0,0.685-0.078,0.998-0.196l0.588,2.468
			c-0.666,0.255-1.469,0.333-2.075,0.333c-4.172,0-4.582-4.778-5.973-4.778h-0.705v4.582h-3.27v-12.905h5.326
			c3.526,0,5.464,1.351,5.464,4.073c0,1.919-1.214,3.231-3.388,3.623V233.166z"/>
	</g>
	<g>
		<path id="XMLID_87_" fill="#06183D" d="M27.364,235.438c1.089,0.661,2.47,1.147,4.181,1.147c2.14,0,3.521-0.681,3.521-2.042
			c0-2.295-4.785-1.206-7.08-2.878c-0.72-0.525-1.167-1.303-1.167-2.529c0-2.528,2.1-3.773,4.998-3.773
			c1.965,0,3.832,0.564,5.038,1.264l-0.797,1.634c-1.05-0.525-2.567-1.011-4.104-1.011c-2.237,0-2.976,0.875-2.976,1.77
			c0,3.171,8.247,0.311,8.247,5.427c0,2.82-2.743,4.026-5.699,4.026c-2.12,0-3.851-0.564-5.095-1.381L27.364,235.438z"/>
		<polygon id="XMLID_86_" fill="#06183D" points="41.133,225.461 41.133,227.308 45.899,227.308 45.899,238.278 47.96,238.278 
			47.96,227.308 52.725,227.308 52.725,225.461 		"/>
		<path id="XMLID_83_" fill="#06183D" d="M61.885,228.3h0.039l2.256,4.493h-4.434L61.885,228.3z M61.204,225.402l-6.341,12.875
			h2.276l1.731-3.637h6.243l1.829,3.637h2.275l-6.574-12.875H61.204z"/>
		<polygon id="XMLID_82_" fill="#06183D" points="85.476,225.461 85.476,234.738 85.437,234.738 76.198,225.461 74.585,225.461 
			74.585,238.278 76.645,238.278 76.645,228.864 76.685,228.864 86.059,238.278 87.538,238.278 87.538,225.461 		"/>
		<path id="XMLID_79_" fill="#06183D" d="M98.603,236.43c1.264,0,2.315-0.117,3.21-0.369c2.139-0.622,3.442-2.023,3.442-4.395
			c0-2.393-1.381-3.579-3.326-4.085c-0.817-0.214-1.732-0.272-2.84-0.272h-2.489v9.122H98.603z M94.538,225.461h4.804
			c1.206,0,2.218,0.097,3.132,0.311c2.976,0.72,4.94,2.645,4.94,5.893c0,3.267-2.023,5.348-5.115,6.204
			c-1.05,0.292-2.218,0.408-3.657,0.408h-4.104V225.461z"/>
		<path id="XMLID_76_" fill="#06183D" d="M119.12,228.3h0.04l2.256,4.493h-4.435L119.12,228.3z M118.44,225.402l-6.34,12.875h2.275
			l1.731-3.637h6.244l1.828,3.637h2.275l-6.574-12.875H118.44z"/>
		<path id="XMLID_73_" fill="#06183D" d="M135.437,231.471c0.836,0,1.497-0.039,2.023-0.194c0.992-0.292,1.634-0.914,1.634-1.964
			c0-0.973-0.623-1.595-1.459-1.829c-0.545-0.156-1.128-0.175-1.945-0.175h-1.809v4.163H135.437z M131.82,225.461h3.831
			c0.972,0,1.848,0.058,2.587,0.253c1.673,0.447,3.014,1.536,3.014,3.559c0,2.198-1.575,3.307-3.676,3.657v0.039
			c0.836,0.467,1.361,2.178,2.393,3.014c0.389,0.311,0.817,0.506,1.361,0.506c0.233,0,0.603-0.039,0.895-0.117l0.428,1.75
			c-0.37,0.156-1.011,0.253-1.614,0.253c-0.972,0-1.731-0.35-2.353-0.856c-1.77-1.439-2.451-4.201-3.754-4.201h-1.05v4.959h-2.062
			V225.461z"/>
		<path id="XMLID_9_" fill="#06183D" d="M152.046,236.43c1.264,0,2.315-0.117,3.209-0.369c2.14-0.622,3.443-2.023,3.443-4.395
			c0-2.393-1.381-3.579-3.326-4.085c-0.817-0.214-1.732-0.272-2.84-0.272h-2.489v9.122H152.046z M147.981,225.461h4.804
			c1.206,0,2.217,0.097,3.132,0.311c2.976,0.72,4.94,2.645,4.94,5.893c0,3.267-2.023,5.348-5.115,6.204
			c-1.05,0.292-2.218,0.408-3.657,0.408h-4.104V225.461z"/>
	</g>
</g>
</svg>
