<?xml version="1.0" encoding="utf-8"?>
<!-- Generator: Adobe Illustrator 17.0.0, SVG Export Plug-In . SVG Version: 6.00 Build 0)  -->
<!DOCTYPE svg PUBLIC "-//W3C//DTD SVG 1.1//EN" "http://www.w3.org/Graphics/SVG/1.1/DTD/svg11.dtd">
<svg version="1.1" id="Layer_1" xmlns="http://www.w3.org/2000/svg" xmlns:xlink="http://www.w3.org/1999/xlink" x="0px" y="0px"
	 width="300px" height="600px" viewBox="0 0 300 600" enable-background="new 0 0 300 600" xml:space="preserve">
<g>
	<g>
		<g id="XMLID_128_">
			<path id="XMLID_132_" fill="#FFFFFF" d="M165.189,240.821c0.562,0,0.857-0.053,1.084-0.12c0.628-0.187,0.883-0.576,0.883-1.071
				c0-0.495-0.255-0.843-0.843-1.017c-0.228-0.067-0.468-0.08-0.91-0.08h-1.164v2.288H165.189z M162.004,236.633h3.452
				c0.749,0,1.271,0.067,1.739,0.201c1.379,0.388,2.249,1.311,2.249,2.77c0,1.486-0.897,2.529-2.53,2.917
				c-0.442,0.107-0.95,0.147-1.646,0.147h-1.031v2.783h-2.235V236.633z"/>
			<path id="XMLID_129_" fill="#FFFFFF" d="M177.061,240.526c1.191,0,1.672-0.375,1.672-1.03c0-0.709-0.482-0.964-1.512-0.964
				h-1.338v1.994H177.061z M178.707,241.918c0.736,0.415,0.99,1.887,2.074,1.887c0.24,0,0.468-0.054,0.682-0.134l0.402,1.686
				c-0.455,0.174-1.004,0.228-1.418,0.228c-2.851,0-3.131-3.265-4.082-3.265h-0.482v3.131h-2.235v-8.818h3.639
				c2.409,0,3.734,0.923,3.734,2.783c0,1.311-0.829,2.208-2.315,2.475V241.918z"/>
		</g>
		<polygon id="XMLID_127_" fill="#FFFFFF" points="185.613,236.633 185.613,245.451 192.545,245.451 192.545,243.551 
			187.848,243.551 187.848,241.958 192.05,241.958 192.05,240.058 187.848,240.058 187.848,238.533 192.465,238.533 
			192.465,236.633 		"/>
		<polygon id="XMLID_126_" fill="#FFFFFF" points="205.755,236.633 202.356,240.674 202.329,240.674 198.93,236.633 
			196.909,236.633 196.909,245.451 199.144,245.451 199.144,240.138 199.171,240.138 202.155,243.698 202.503,243.698 
			205.487,240.138 205.514,240.138 205.514,245.451 207.748,245.451 207.748,236.633 		"/>
		<rect id="XMLID_125_" x="212.515" y="236.633" fill="#FFFFFF" width="2.235" height="8.818"/>
		<polygon id="XMLID_124_" fill="#FFFFFF" points="219.514,236.633 219.514,245.451 226.446,245.451 226.446,243.551 
			221.749,243.551 221.749,241.958 225.951,241.958 225.951,240.058 221.749,240.058 221.749,238.533 226.366,238.533 
			226.366,236.633 		"/>
		<path id="XMLID_121_" fill="#FFFFFF" d="M234.223,240.526c1.191,0,1.672-0.375,1.672-1.03c0-0.709-0.482-0.964-1.512-0.964h-1.338
			v1.994H234.223z M235.869,241.918c0.736,0.415,0.99,1.887,2.074,1.887c0.24,0,0.468-0.054,0.682-0.134l0.402,1.686
			c-0.455,0.174-1.004,0.228-1.418,0.228c-2.851,0-3.131-3.265-4.082-3.265h-0.482v3.131h-2.235v-8.818h3.639
			c2.409,0,3.734,0.923,3.734,2.783c0,1.311-0.829,2.208-2.315,2.475V241.918z"/>
	</g>
	<g>
		<path id="XMLID_120_" fill="#FFFFFF" d="M61.611,243.471c0.744,0.452,1.688,0.784,2.857,0.784c1.462,0,2.406-0.465,2.406-1.395
			c0-1.568-3.27-0.824-4.838-1.967c-0.492-0.359-0.797-0.89-0.797-1.728c0-1.728,1.435-2.578,3.415-2.578
			c1.343,0,2.618,0.385,3.442,0.864l-0.545,1.116c-0.718-0.359-1.754-0.691-2.804-0.691c-1.529,0-2.034,0.598-2.034,1.209
			c0,2.167,5.635,0.213,5.635,3.708c0,1.927-1.874,2.751-3.894,2.751c-1.449,0-2.631-0.385-3.482-0.944L61.611,243.471z"/>
		<polygon id="XMLID_119_" fill="#FFFFFF" points="71.02,236.653 71.02,237.916 74.276,237.916 74.276,245.411 75.685,245.411 
			75.685,237.916 78.941,237.916 78.941,236.653 		"/>
		<path id="XMLID_116_" fill="#FFFFFF" d="M85.2,238.593h0.027l1.542,3.07h-3.03L85.2,238.593z M84.735,236.613l-4.333,8.798h1.555
			l1.183-2.485h4.266l1.25,2.485h1.555l-4.492-8.798H84.735z"/>
		<polygon id="XMLID_115_" fill="#FFFFFF" points="101.32,236.653 101.32,242.993 101.294,242.993 94.981,236.653 93.878,236.653 
			93.878,245.411 95.286,245.411 95.286,238.979 95.313,238.979 101.719,245.411 102.729,245.411 102.729,236.653 		"/>
		<path id="XMLID_112_" fill="#FFFFFF" d="M110.29,244.149c0.864,0,1.582-0.08,2.193-0.252c1.462-0.425,2.352-1.382,2.352-3.003
			c0-1.635-0.944-2.446-2.272-2.791c-0.558-0.146-1.183-0.186-1.941-0.186h-1.701v6.233H110.29z M107.513,236.653h3.282
			c0.824,0,1.515,0.066,2.14,0.213c2.033,0.492,3.376,1.807,3.376,4.027c0,2.233-1.382,3.655-3.495,4.239
			c-0.718,0.199-1.515,0.279-2.499,0.279h-2.804V236.653z"/>
		<path id="XMLID_109_" fill="#FFFFFF" d="M124.31,238.593h0.027l1.542,3.07h-3.03L124.31,238.593z M123.845,236.613l-4.332,8.798
			h1.555l1.183-2.485h4.266l1.249,2.485h1.555l-4.492-8.798H123.845z"/>
		<path id="XMLID_106_" fill="#FFFFFF" d="M135.46,240.76c0.571,0,1.023-0.027,1.382-0.133c0.678-0.199,1.117-0.625,1.117-1.342
			c0-0.665-0.426-1.09-0.997-1.25c-0.372-0.106-0.771-0.12-1.329-0.12h-1.236v2.844H135.46z M132.988,236.653h2.618
			c0.664,0,1.262,0.04,1.768,0.173c1.143,0.306,2.06,1.05,2.06,2.432c0,1.502-1.076,2.26-2.512,2.499v0.027
			c0.571,0.319,0.93,1.488,1.635,2.06c0.266,0.213,0.558,0.346,0.93,0.346c0.159,0,0.412-0.027,0.611-0.08l0.292,1.196
			c-0.253,0.106-0.691,0.173-1.103,0.173c-0.664,0-1.183-0.239-1.608-0.585c-1.21-0.983-1.675-2.871-2.565-2.871h-0.718v3.389
			h-1.409V236.653z"/>
		<path id="XMLID_103_" fill="#FFFFFF" d="M146.809,244.149c0.864,0,1.582-0.08,2.193-0.252c1.462-0.425,2.353-1.382,2.353-3.003
			c0-1.635-0.944-2.446-2.272-2.791c-0.558-0.146-1.183-0.186-1.941-0.186h-1.701v6.233H146.809z M144.032,236.653h3.282
			c0.824,0,1.515,0.066,2.14,0.213c2.033,0.492,3.376,1.807,3.376,4.027c0,2.233-1.382,3.655-3.495,4.239
			c-0.718,0.199-1.515,0.279-2.499,0.279h-2.804V236.653z"/>
	</g>
</g>
</svg>
