<?xml version="1.0" encoding="utf-8"?>
<!-- Generator: Adobe Illustrator 17.0.0, SVG Export Plug-In . SVG Version: 6.00 Build 0)  -->
<!DOCTYPE svg PUBLIC "-//W3C//DTD SVG 1.1//EN" "http://www.w3.org/Graphics/SVG/1.1/DTD/svg11.dtd">
<svg version="1.1" id="Layer_3" xmlns="http://www.w3.org/2000/svg" xmlns:xlink="http://www.w3.org/1999/xlink" x="0px" y="0px"
	 width="113px" height="27px" viewBox="0 0 113 27" enable-background="new 0 0 113 27" xml:space="preserve">
<g>
	<path fill="#06183D" d="M107.752,26.475H5.248c-2.504,0-4.553-2.049-4.553-4.553V5.077c0-2.504,2.049-4.553,4.553-4.553h102.504
		c2.504,0,4.553,2.049,4.553,4.553v16.845C112.305,24.427,110.256,26.475,107.752,26.475z"/>
	<path opacity="0.3" fill="#12274C" d="M109.714,1.602c0.677,0.972,1.077,2.149,1.077,3.416v13.938c0,3.304-2.703,6.006-6.006,6.006
		H5.188c-1.267,0-2.444-0.4-3.416-1.077c1.088,1.562,2.893,2.591,4.929,2.591h99.596c3.304,0,6.006-2.703,6.006-6.006V6.531
		C112.305,4.495,111.276,2.689,109.714,1.602z"/>
</g>
</svg>
