<?xml version="1.0" encoding="utf-8"?>
<!-- Generator: Adobe Illustrator 17.0.0, SVG Export Plug-In . SVG Version: 6.00 Build 0)  -->
<!DOCTYPE svg PUBLIC "-//W3C//DTD SVG 1.1//EN" "http://www.w3.org/Graphics/SVG/1.1/DTD/svg11.dtd">
<svg version="1.1" id="Layer_1" xmlns="http://www.w3.org/2000/svg" xmlns:xlink="http://www.w3.org/1999/xlink" x="0px" y="0px"
	 width="300px" height="600px" viewBox="0 0 300 600" enable-background="new 0 0 300 600" xml:space="preserve">
<g>
	<path fill="#06183D" d="M126.195,423.342l-0.92,0.567l-0.271-0.447l0.976-0.56l-0.976-0.561l0.271-0.447l0.92,0.567l-0.016-1.007
		h0.543l-0.016,1.007l0.928-0.575l0.271,0.447l-0.983,0.568l0.983,0.567l-0.271,0.447l-0.928-0.575l0.016,0.976h-0.543
		L126.195,423.342z"/>
	<path fill="#06183D" d="M130.556,422.19h-2.055v-0.528h4.709v0.528h-2.062v4.741h-0.592V422.19z"/>
	<path fill="#06183D" d="M133.181,426.148c0.367,0.207,0.808,0.336,1.391,0.336c0.536,0,1.12-0.145,1.12-0.648
		c0-0.119-0.04-0.216-0.112-0.287c-0.384-0.4-1.783-0.145-2.278-0.8c-0.112-0.145-0.185-0.328-0.185-0.576
		c0-0.743,0.632-1.159,1.543-1.159c0.6,0,1.136,0.136,1.584,0.352l-0.208,0.464c-0.44-0.199-0.855-0.288-1.359-0.288
		c-0.552,0-0.943,0.192-0.943,0.592c0,0.12,0.04,0.225,0.104,0.305c0.36,0.432,1.703,0.184,2.239,0.728
		c0.144,0.144,0.239,0.335,0.239,0.623c0,0.912-0.879,1.224-1.727,1.224c-0.664,0-1.256-0.152-1.647-0.4L133.181,426.148z"/>
	<path fill="#06183D" d="M137.309,425.484c0-0.808,0.575-1.224,1.247-1.415v-0.017c-0.536-0.224-0.872-0.543-0.872-1.111
		c0-0.783,0.68-1.318,2.016-1.318c1.231,0,2.087,0.487,2.087,1.351c0,0.647-0.473,1.111-1.535,1.247v0.017
		c0.543,0.216,1.127,0.535,1.694,1.071c0.192-0.256,0.353-0.56,0.488-0.911l0.527,0.191c-0.144,0.408-0.352,0.792-0.624,1.128
		c0.305,0.327,0.584,0.728,0.856,1.215h-0.688c-0.176-0.296-0.367-0.56-0.567-0.8c-0.6,0.536-1.415,0.88-2.479,0.88
		C138.124,427.012,137.309,426.42,137.309,425.484z M141.562,425.732c-0.743-0.744-1.566-1.096-2.271-1.352
		c-0.728,0.096-1.367,0.392-1.367,1.056c0,0.647,0.56,1.056,1.527,1.056C140.29,426.492,141.002,426.244,141.562,425.732z
		 M141.17,422.966c0-0.496-0.544-0.823-1.463-0.823c-0.928,0-1.407,0.319-1.407,0.808c0,0.527,0.52,0.72,1.191,0.951
		C140.763,423.781,141.17,423.47,141.17,422.966z"/>
	<path fill="#06183D" d="M147.019,421.623c0.68,0,1.295,0.127,1.895,0.383l-0.184,0.504c-0.479-0.216-1.023-0.359-1.663-0.359
		c-1.511,0-2.454,0.911-2.454,2.167c0,1.335,0.855,2.167,2.446,2.167c0.607,0,1.176-0.145,1.671-0.345l0.2,0.504
		c-0.655,0.264-1.296,0.368-1.927,0.368c-1.959,0-3.015-1.063-3.015-2.646S145.172,421.623,147.019,421.623z"/>
	<path fill="#06183D" d="M149.805,426.148c0.367,0.207,0.808,0.336,1.391,0.336c0.536,0,1.12-0.145,1.12-0.648
		c0-0.119-0.04-0.216-0.112-0.287c-0.384-0.4-1.783-0.145-2.278-0.8c-0.112-0.145-0.185-0.328-0.185-0.576
		c0-0.743,0.632-1.159,1.543-1.159c0.601,0,1.136,0.136,1.584,0.352l-0.208,0.464c-0.44-0.199-0.855-0.288-1.359-0.288
		c-0.552,0-0.943,0.192-0.943,0.592c0,0.12,0.04,0.225,0.104,0.305c0.36,0.432,1.703,0.184,2.239,0.728
		c0.144,0.144,0.239,0.335,0.239,0.623c0,0.912-0.879,1.224-1.727,1.224c-0.664,0-1.256-0.152-1.647-0.4L149.805,426.148z"/>
	<path fill="#06183D" d="M155.604,425.324c0-0.831,0.368-1.511,1.031-1.91c0.416-0.248,0.943-0.4,1.672-0.4
		c0.375,0,0.768,0.032,1.103,0.064v2.966c0,0.304,0.168,0.4,0.393,0.4c0.111,0,0.256-0.032,0.335-0.057l0.12,0.488
		c-0.176,0.063-0.384,0.096-0.583,0.096c-0.456,0-0.792-0.224-0.824-0.752c0-0.128-0.008-0.271,0-0.472h-0.016
		c-0.288,0.712-0.896,1.264-1.735,1.264C156.292,427.012,155.604,426.46,155.604,425.324z M158.819,423.789v-0.224
		c-0.152-0.016-0.336-0.024-0.601-0.024c-0.512,0-0.943,0.12-1.263,0.328c-0.464,0.296-0.735,0.792-0.735,1.432
		c0,0.72,0.344,1.184,0.959,1.184C157.972,426.484,158.819,425.628,158.819,423.789z"/>
	<path fill="#06183D" d="M161.365,423.63h-0.776v-0.512h1.367v0.575c0,0.128,0,0.32-0.008,0.512h0.017
		c0.247-0.624,0.831-1.191,1.679-1.191c0.863,0,1.503,0.6,1.503,1.655c0,1.271-0.903,2.343-2.431,2.343
		c-0.231,0-0.504-0.024-0.76-0.096v1.91h-0.591V423.63z M162.708,426.484c0.896,0,1.823-0.592,1.823-1.815
		c0-0.647-0.344-1.128-0.968-1.128c-0.768,0-1.607,0.816-1.607,2.671v0.152C162.204,426.452,162.484,426.484,162.708,426.484z"/>
	<path fill="#06183D" d="M166.501,423.63h-0.776v-0.512h1.367v0.575c0,0.128,0,0.32-0.008,0.512h0.017
		c0.247-0.624,0.831-1.191,1.679-1.191c0.863,0,1.503,0.6,1.503,1.655c0,1.271-0.903,2.343-2.431,2.343
		c-0.231,0-0.504-0.024-0.76-0.096v1.91h-0.591V423.63z M167.844,426.484c0.896,0,1.823-0.592,1.823-1.815
		c0-0.647-0.344-1.128-0.968-1.128c-0.768,0-1.607,0.816-1.607,2.671v0.152C167.34,426.452,167.62,426.484,167.844,426.484z"/>
	<path fill="#06183D" d="M170.797,421.271h1.367v4.798c0,0.287,0.16,0.376,0.399,0.376c0.104,0,0.248-0.024,0.328-0.049l0.12,0.488
		c-0.185,0.056-0.376,0.088-0.567,0.088c-0.544,0-0.872-0.256-0.872-0.792v-4.397h-0.775V421.271z"/>
	<path fill="#06183D" d="M175.14,426.588l-1.975-3.47h0.672l1.623,2.83h0.016l1.455-2.83h0.64l-2.966,5.708h-0.632L175.14,426.588z"
		/>
</g>
</svg>
